<svg xmlns="http://www.w3.org/2000/svg" viewBox="0 0 18 18"><defs><style>.cls-1{fill:#ccc;}</style></defs><title>email_1</title><g id="Layer_2" data-name="Layer 2"><g id="Layer_1-2" data-name="Layer 1"><path class="cls-1" d="M14.62,0H3.38A3.38,3.38,0,0,0,0,3.38V14.62A3.38,3.38,0,0,0,3.38,18H14.62A3.38,3.38,0,0,0,18,14.62V3.38A3.38,3.38,0,0,0,14.62,0ZM15,11.48A1.53,1.53,0,0,1,13.48,13h-9A1.53,1.53,0,0,1,3,11.48v-5A1.53,1.53,0,0,1,4.52,5h9A1.53,1.53,0,0,1,15,6.52Z"/><path class="cls-1" d="M9,9.91a1.92,1.92,0,0,1-1.36-.57L3.7,6.4a.5.5,0,0,1,.6-.8l4,3a.93.93,0,0,0,1.37,0l4-3a.5.5,0,0,1,.6.8l-4,3A1.85,1.85,0,0,1,9,9.91Z"/></g></g></svg>