<svg xmlns="http://www.w3.org/2000/svg" viewBox="0 0 18 18"><defs><style>.cls-1{fill:#ccc;}</style></defs><title>facebook</title><g id="Layer_2" data-name="Layer 2"><g id="Layer_1-2" data-name="Layer 1"><path class="cls-1" d="M15.57,0H2.43A2.43,2.43,0,0,0,0,2.43V15.57A2.43,2.43,0,0,0,2.43,18H8.91V11.57H7.25a.39.39,0,0,1-.39-.39V9.1a.39.39,0,0,1,.39-.4H8.91v-2A3.27,3.27,0,0,1,12.4,3.11h1.7a.39.39,0,0,1,.39.39V5.25a.39.39,0,0,1-.39.39h-1c-1.13,0-1.35.54-1.35,1.32V8.71h2.48a.39.39,0,0,1,.39.44l-.25,2.07a.39.39,0,0,1-.39.35H11.73V18h3.86A2.43,2.43,0,0,0,18,15.57V2.43A2.43,2.43,0,0,0,15.57,0Z"/></g></g></svg>