<svg xmlns="http://www.w3.org/2000/svg" viewBox="0 0 18 18"><defs><style>.cls-1{fill:#ccc;}</style></defs><title>instagram</title><g id="Layer_2" data-name="Layer 2"><g id="Layer_1-2" data-name="Layer 1"><path class="cls-1" d="M12.64,0H5.36A5.37,5.37,0,0,0,0,5.36v7.28A5.37,5.37,0,0,0,5.36,18h7.28A5.37,5.37,0,0,0,18,12.64V5.36A5.37,5.37,0,0,0,12.64,0Zm3.55,12.64a3.55,3.55,0,0,1-3.55,3.55H5.36a3.55,3.55,0,0,1-3.55-3.55V5.36A3.55,3.55,0,0,1,5.36,1.81h7.28a3.55,3.55,0,0,1,3.55,3.55v7.28Z"/><path class="cls-1" d="M9,4.34A4.66,4.66,0,1,0,13.66,9,4.66,4.66,0,0,0,9,4.34Zm0,7.5A2.84,2.84,0,1,1,11.84,9,2.84,2.84,0,0,1,9,11.84Z"/><circle class="cls-1" cx="13.66" cy="4.38" r="1.12"/></g></g></svg>