<svg xmlns="http://www.w3.org/2000/svg" viewBox="0 0 18 18"><defs><style>.cls-1{fill:#ccc;}</style></defs><title>linkedin</title><g id="Layer_2" data-name="Layer 2"><g id="Layer_1-2" data-name="Layer 1"><path class="cls-1" d="M16.37,0H1.63A1.63,1.63,0,0,0,0,1.63V16.37A1.63,1.63,0,0,0,1.63,18H16.37A1.63,1.63,0,0,0,18,16.37V1.63A1.63,1.63,0,0,0,16.37,0ZM5.57,15.54A.47.47,0,0,1,5.1,16h-2a.47.47,0,0,1-.47-.47V7.09a.47.47,0,0,1,.47-.47h2a.47.47,0,0,1,.47.47ZM4.09,5.82A1.92,1.92,0,1,1,6,3.9,1.92,1.92,0,0,1,4.09,5.82Zm12,9.76a.44.44,0,0,1-.44.44H13.51a.44.44,0,0,1-.44-.44v-4c0-.59.17-2.59-1.55-2.59-1.33,0-1.6,1.37-1.66,2v4.57a.44.44,0,0,1-.44.44H7.34a.44.44,0,0,1-.44-.44V7a.44.44,0,0,1,.44-.44H9.43A.44.44,0,0,1,9.87,7v.74a3,3,0,0,1,2.79-1.32c3.47,0,3.45,3.24,3.45,5v4.09Z"/></g></g></svg>