<svg xmlns="http://www.w3.org/2000/svg" viewBox="0 0 11.54 11.96"><defs><style>.cls-1{fill:#fff;}</style></defs><title>resume</title><g id="Layer_2" data-name="Layer 2"><g id="Layer_1-2" data-name="Layer 1"><path class="cls-1" d="M10,12H1.69V11H10a.5.5,0,0,0,.5-.5V1H3.38V5.21h-1V0h9.17V10.46A1.5,1.5,0,0,1,10,12Z"/><rect class="cls-1" x="4.46" y="2.46" width="5" height="0.75"/><rect class="cls-1" x="4.46" y="4.04" width="5" height="0.75"/><rect class="cls-1" x="4.46" y="5.61" width="5" height="0.75"/><rect class="cls-1" x="4.46" y="7.18" width="5" height="0.75"/><rect class="cls-1" x="4.46" y="8.75" width="5" height="0.75"/><path class="cls-1" d="M1.87,12H1.5A1.5,1.5,0,0,1,0,10.46V4.88H3.38v5.58A1.51,1.51,0,0,1,1.87,12ZM1,5.88v4.58a.5.5,0,0,0,.5.5h.37a.51.51,0,0,0,.5-.5V5.88Z"/></g></g></svg>